<svg xmlns="http://www.w3.org/2000/svg" width="52px" height="52px" viewBox="0 0 52 52" version="1.1">
    <title>Group 18</title>
    <desc>Created with Sketch.</desc>
    <defs/>
    <g id="Health-Samurai" stroke="none" stroke-width="1" fill="none" fill-rule="evenodd" transform="translate(-267.000000, -31.000000)">
        <g id="Group-18" transform="translate(267.000000, 31.000000)">
            <g id="circle-logo" fill-rule="nonzero">
                <circle id="Oval" fill="#EA4A35" cx="26" cy="26" r="26"/>
                <path d="M14.2749838,26.401932 C14.1519685,26.0328859 14.0289531,25.9098706 13.659907,25.9098706 C12.5690938,25.8984542 11.4801706,25.8162713 10.4,25.6638398 C10.5203547,26.3300726 10.6847355,26.9875956 10.8920614,27.6320856 C11.6916613,30.5844542 13.659907,32.4296847 16.6122758,33.5983307 C18.0884601,34.1518998 23.501136,34.7669766 23.8701821,34.7669766 C22.3324901,34.0288844 20.7332903,33.2907923 19.1955983,32.3681771 C16.830512,31.108922 15.061061,28.9634627 14.2749838,26.401932 Z M21.4344779,22.5269481 C20.6963858,22.2194097 20.0198013,21.973379 19.2817091,21.6658406 C17.1904479,20.804733 17.2519556,21.0507638 15.4682329,19.8206102 C15.0181307,21.0649197 14.7689822,22.372949 14.7301407,23.695594 C14.7029548,26.2216574 15.8647462,28.6135808 17.8670325,30.1539005 C20.0198013,31.9376233 21.8650317,32.6757155 24.4483542,33.536823 C24.8174003,33.6598383 25.063431,33.7828537 25.6170002,33.9673767 C25.6170002,32.9832539 25.7400156,28.3086701 25.3709695,26.8324858 C24.9404157,24.8027323 23.525739,23.3880556 21.4344779,22.5269481 Z M30.0455532,21.653539 C28.7723442,16.4069339 26.1090617,13.8666667 26.1090617,13.8666667 C26.1090617,13.8666667 23.4088745,16.4991954 22.1602685,21.653539 C24.1683433,22.3573779 25.6647005,24.0565125 26.1090617,26.137449 C26.6872338,22.6499634 30.0455532,21.653539 30.0455532,21.653539 Z M37.9123856,26.401932 C37.1263084,28.9634627 35.3568575,31.108922 32.9917711,32.3681771 C31.4540791,33.2907923 29.8548794,34.0288844 28.3171873,34.7669766 C28.6862335,34.7669766 34.0989093,34.1518998 35.5750937,33.5983307 C38.5274624,32.4296847 40.4957082,30.5844542 41.295308,27.6320856 C41.502634,26.9875956 41.6670147,26.3300726 41.7873694,25.6638398 C40.7071988,25.8162713 39.6182757,25.8984542 38.5274624,25.9098706 C38.1584163,25.9098706 38.035401,26.0328859 37.9123856,26.401932 Z M30.7774946,22.5269481 C28.6862335,23.3880556 27.2715568,24.8027323 26.841003,26.8324858 C26.4719569,28.3086701 26.5949723,32.9832539 26.5949723,33.9673767 C27.1485414,33.7828537 27.3945721,33.6598383 27.7636182,33.536823 C30.3469409,32.6757155 32.1921713,31.9376233 34.3449401,30.1539005 C36.3472263,28.6135808 37.5090177,26.2216574 37.4818318,23.695594 C37.4429903,22.372949 37.1938419,21.0649197 36.7437397,19.8206102 C34.9600169,21.0507638 35.0215245,20.804733 32.9302634,21.6658406 C32.1921713,21.973379 31.5155868,22.2194097 30.7774946,22.5269481 Z" id="samurai-copy" fill="#FFFFFF"/>
            </g>
        </g>
    </g>
</svg>
