<svg width="70" height="40" viewBox="0 0 40 74" fill="none" xmlns="http://www.w3.org/2000/svg">
<path d="M43.977 56.463L43.896 65.678L31 73L19.969 66.29L19.874 56.903L31.1363 63.7534L43.977 56.463ZM16.381 10.077L16.299 19.504L8.88165 24.1027V50.2174L15.994 54.543L15.913 63.823L1 54.7524V19.6124L16.381 10.077ZM47.408 10.731L63 19.9911V54.832L47.939 63.382L47.847 54.265L55.1173 50.1384V24.5808L47.502 20.057L47.408 10.731ZM31.0248 1L44.391 8.939L44.311 18.162L31.1117 10.3226L19.477 17.534L19.383 8.216L31.0248 1Z" fill="#000"/>
<path d="M25.3395 46.061L26.0853 44.5042H36.3762L38.3954 49.4688H46.6304L34.8322 21.4688H27.4286L15.6304 49.4688H19.9284C22.2376 49.4688 24.3419 48.1436 25.3395 46.061ZM34.6304 38.4688H28.4296L31.53 30.3951L34.6304 38.4688Z" fill="#EA4A35"/>
<path fill-rule="evenodd" clip-rule="evenodd" d="M20.2265 49.4688H15.6304L27.4286 21.4688H34.8322L25.8485 45.5648C24.9733 47.9122 22.7317 49.4688 20.2265 49.4688Z" fill="#C62712"/>
</svg>
