<svg width="22" height="22" viewBox="0 0 22 22" fill="none" xmlns="http://www.w3.org/2000/svg">
<path d="M14.4375 5.5C14.4375 6.41168 14.0753 7.28602 13.4307 7.93068C12.786 8.57534 11.9117 8.9375 11 8.9375C10.0883 8.9375 9.21398 8.57534 8.56932 7.93068C7.92466 7.28602 7.5625 6.41168 7.5625 5.5C7.5625 4.58832 7.92466 3.71398 8.56932 3.06932C9.21398 2.42466 10.0883 2.0625 11 2.0625C11.9117 2.0625 12.786 2.42466 13.4307 3.06932C14.0753 3.71398 14.4375 4.58832 14.4375 5.5ZM4.12592 18.4415C4.15537 16.6378 4.89256 14.918 6.17849 13.6529C7.46443 12.3878 9.19608 11.6788 11 11.6788C12.8039 11.6788 14.5356 12.3878 15.8215 13.6529C17.1074 14.918 17.8446 16.6378 17.8741 18.4415C15.7175 19.4304 13.3725 19.9407 11 19.9375C8.547 19.9375 6.21867 19.4022 4.12592 18.4415Z" stroke="#595C70" stroke-width="1.5" stroke-linecap="round" stroke-linejoin="round"/>
</svg>
