<svg width="205" height="40" viewBox="0 0 205 74" fill="none" xmlns="http://www.w3.org/2000/svg">
<path d="M81.1229 48.4303L82.6237 44.6785H90.7276L92.2583 48.4303H98.5013L89.557 27.2701H83.9443L75 48.4303H81.1229ZM89.0468 40.1463H84.3345L86.7056 34.1735L89.0468 40.1463ZM106.515 48.4303V27.4202H100.662V48.4303H106.515ZM118.341 48.4303C125.905 48.4303 130.317 43.9282 130.317 37.8652C130.317 31.7423 125.965 27.4202 118.461 27.4202H110.357V48.4303H118.341ZM118.551 43.2678H116.18V32.5227H118.551C122.033 32.5227 124.344 34.5336 124.344 37.8953C124.344 41.3469 122.033 43.2678 118.551 43.2678ZM144.153 48.4303C149.166 48.4303 152.107 46.2393 152.107 42.6375C152.107 39.7261 150.486 38.2854 147.935 37.445C149.796 36.6346 151.177 35.1939 151.177 32.7628C151.177 31.2621 150.666 30.1515 149.826 29.3111C148.595 28.0805 146.735 27.4202 144.093 27.4202H133.318V48.4303H144.153ZM142.653 35.7942H138.991V32.1025H142.773C144.513 32.1025 145.414 32.7628 145.414 33.9033C145.414 35.1939 144.423 35.7942 142.653 35.7942ZM143.493 43.7481H138.991V39.8762H143.433C145.384 39.8762 146.284 40.6266 146.284 41.7671C146.284 43.0577 145.264 43.7481 143.493 43.7481ZM165.344 48.8505C171.827 48.8505 176.689 43.9582 176.689 37.9253C176.689 31.8323 171.887 27 165.404 27C158.92 27 154.058 31.8924 154.058 37.9253C154.058 44.0182 158.86 48.8505 165.344 48.8505ZM165.404 43.598C162.222 43.598 160.031 40.9567 160.031 37.9253C160.031 34.8338 162.162 32.2525 165.344 32.2525C168.555 32.2525 170.746 34.8938 170.746 37.9253C170.746 41.0168 168.615 43.598 165.404 43.598ZM184.733 48.4303L188.785 42.0973L192.807 48.4303H199.5L192.297 37.6852L199.2 27.4202H192.657L188.905 33.3331L185.183 27.4202H178.49L185.393 37.7452L178.19 48.4303H184.733Z" fill="#595C70"/>
<path d="M43.977 56.463L43.896 65.678L31 73L19.969 66.29L19.874 56.903L31.1363 63.7534L43.977 56.463ZM16.381 10.077L16.299 19.504L8.88165 24.1027V50.2174L15.994 54.543L15.913 63.823L1 54.7524V19.6124L16.381 10.077ZM47.408 10.731L63 19.9911V54.832L47.939 63.382L47.847 54.265L55.1173 50.1384V24.5808L47.502 20.057L47.408 10.731ZM31.0248 1L44.391 8.939L44.311 18.162L31.1117 10.3226L19.477 17.534L19.383 8.216L31.0248 1Z" fill="#595C70"/>
<path d="M25.3395 46.061L26.0853 44.5042H36.3762L38.3954 49.4688H46.6304L34.8322 21.4688H27.4286L15.6304 49.4688H19.9284C22.2376 49.4688 24.3419 48.1436 25.3395 46.061ZM34.6304 38.4688H28.4296L31.53 30.3951L34.6304 38.4688Z" fill="#EA4A35"/>
<path fill-rule="evenodd" clip-rule="evenodd" d="M20.2265 49.4688H15.6304L27.4286 21.4688H34.8322L25.8485 45.5648C24.9733 47.9122 22.7317 49.4688 20.2265 49.4688Z" fill="#C62712"/>
</svg>
