<svg width="126" height="144" viewBox="0 0 126 144" fill="none" xmlns="http://www.w3.org/2000/svg">
<path d="M87.2171 111.73L87.0527 130.431L66.9638 142.795C64.4612 144.336 61.3214 144.403 58.7549 142.972L38.4955 131.673L38.3027 112.623L59.029 124.202C61.5967 125.636 64.7394 125.57 67.244 124.027L87.2171 111.73ZM31.214 17.5947L31.0476 36.7257L19.8351 43.6774C17.4475 45.1577 15.9949 47.7672 15.9949 50.5765V94.4912C15.9949 97.3252 17.473 99.9541 19.8944 101.427L30.4287 107.834L30.2643 126.666L3.89918 110.63C1.47794 109.157 0 106.529 0 103.695V41.4642C0 38.6548 1.45262 36.0451 3.84037 34.5649L31.214 17.5947ZM94.1799 18.9219L121.85 35.3551C124.312 36.8178 125.822 39.4701 125.822 42.3345V103.694C125.822 106.615 124.253 109.311 121.712 110.753L95.2575 125.771L95.0708 107.269L105.714 101.228C108.255 99.7859 109.825 97.0898 109.825 94.1683V51.6482C109.825 48.7841 108.316 46.1319 105.853 44.6692L94.3707 37.848L94.1799 18.9219ZM67.0087 1.3491L88.0572 15.2852L87.8949 34.0023L67.1861 20.2727C64.5749 18.5415 61.2005 18.4675 58.5159 20.0826L37.497 32.7278L37.3063 13.818L58.3425 1.16183C61.0256 -0.452395 64.3979 -0.379524 67.0087 1.3491Z" fill="white" fill-opacity="0.6"/>
<path d="M51.4234 90.6211L52.9369 87.4618H73.8211L77.9188 97.5368H94.6308L70.6876 40.7139H55.6629L31.7197 97.5368H40.4421C45.1283 97.5368 49.3987 94.8474 51.4234 90.6211ZM70.2781 75.2135H57.6943L63.9862 58.8289L70.2781 75.2135Z" fill="white" fill-opacity="0.6"/>
<path d="M41.047 97.5368H31.7197L55.6629 40.7139H70.6876L52.4562 89.6141C50.6801 94.3779 46.1311 97.5368 41.047 97.5368Z" fill="white" fill-opacity="0.6"/>
</svg>
